<?xml version="1.0" encoding="UTF-8" standalone="no"?>
<!DOCTYPE svg PUBLIC "-//W3C//DTD SVG 1.1//EN" "http://www.w3.org/Graphics/SVG/1.1/DTD/svg11.dtd">
<svg version="1.1" xmlns="http://www.w3.org/2000/svg" xmlns:xlink="http://www.w3.org/1999/xlink" preserveAspectRatio="xMidYMid meet" viewBox="0 0 600 600"><defs><path d="M326.69 531.75L339.92 509.69L353.53 487.89L367.53 466.34L381.9 445.05L396.64 424.02L411.75 403.27L427.23 382.78L443.06 362.58L459.25 342.67L475.79 323.04L485.25 312.13L494.82 301.31L504.5 290.58L514.28 279.95L524.18 269.42L534.18 258.99L544.29 248.65L554.5 238.41L564.82 228.27L575.24 218.23L312.06 556.63L326.69 531.75ZM175.12 489.16L192.32 460.49L210.01 432.16L228.2 404.15L246.88 376.49L266.03 349.16L285.67 322.19L305.78 295.57L326.36 269.32L347.4 243.44L368.89 217.93L381.19 203.75L393.62 189.69L406.2 175.75L418.92 161.94L431.77 148.25L444.77 134.69L457.9 121.26L471.18 107.95L484.58 94.78L498.13 81.73L156.11 521.49L175.12 489.16ZM41.64 401.87L54.87 379.82L68.49 358.01L82.48 336.46L96.85 315.17L111.59 294.15L126.7 273.39L142.18 252.91L158.01 232.71L174.2 212.79L190.74 193.16L200.2 182.25L209.77 171.43L219.45 160.71L229.24 150.08L239.13 139.55L249.13 129.11L259.24 118.77L269.45 108.54L279.77 98.4L290.19 88.36L27.01 426.75L41.64 401.87Z" id="oBI0jYvnYd"></path></defs><g visibility="inherit"><g visibility="inherit"><g><g><use xlink:href="#oBI0jYvnYd" opacity="1" fill-opacity="0" stroke="#f88ac6" stroke-width="50" stroke-opacity="0.87"></use></g></g></g></g></svg>